<svg width="224" height="80" viewBox="0 0 224 80" fill="none" xmlns="http://www.w3.org/2000/svg">
<path d="M40.6615 43.1382L26.0309 25.6583L20.4689 35.6073L27.7928 44.3559L13.7668 69.5393L20.4257 79.471L40.6615 43.1382Z" fill="#006938"/>
<path d="M0 36.3242L14.6306 53.8127L20.1926 43.855L12.8687 35.1151L26.8947 9.93172L20.2358 0L0 36.3242Z" fill="#EBB422"/>
<path d="M218.016 32.2306V32.0838C218.016 32.0752 218.016 32.0665 218.016 32.0665C218.025 31.9974 218.025 31.9197 218.033 31.8506C218.05 31.7038 218.076 31.557 218.12 31.4188C218.318 30.7797 218.707 30.2961 219.285 29.9593C219.657 29.7434 220.054 29.6311 220.486 29.6052C220.521 29.6052 220.546 29.5966 220.581 29.5966H220.745C220.754 29.5966 220.762 29.5966 220.771 29.5966C220.814 29.5966 220.849 29.5966 220.892 29.6052C221.013 29.6138 221.134 29.6311 221.246 29.657C221.721 29.7606 222.144 29.9766 222.498 30.3134C222.844 30.6415 223.077 31.0475 223.198 31.5138C223.241 31.6693 223.267 31.8334 223.276 31.9888C223.276 32.0234 223.284 32.0493 223.284 32.0838V32.2306C223.284 32.2393 223.284 32.2479 223.284 32.2565C223.284 32.3083 223.276 32.3602 223.276 32.4033C223.267 32.5415 223.241 32.6711 223.207 32.8006C223.034 33.457 222.654 33.9665 222.084 34.3292C221.825 34.4933 221.54 34.6056 221.246 34.6661C221.108 34.692 220.978 34.7092 220.84 34.7179C220.814 34.7179 220.78 34.7265 220.754 34.7265H220.598C220.59 34.7265 220.581 34.7265 220.572 34.7265C220.529 34.7265 220.495 34.7179 220.451 34.7179C220.313 34.7092 220.166 34.6833 220.028 34.6488C219.605 34.5451 219.225 34.3551 218.888 34.0615C218.5 33.7161 218.232 33.2929 218.102 32.7833C218.059 32.6279 218.033 32.4724 218.033 32.317C218.025 32.2911 218.016 32.2565 218.016 32.2306ZM220.685 34.1997C220.849 34.1997 221.013 34.1824 221.151 34.1479C221.6 34.0356 221.954 33.7852 222.231 33.4138C222.481 33.077 222.602 32.6883 222.628 32.2652C222.636 32.0924 222.628 31.9197 222.593 31.7556C222.55 31.5138 222.464 31.2806 222.334 31.0647C222.118 30.7106 221.825 30.4429 221.445 30.2702C221.22 30.1666 220.987 30.1234 220.736 30.1147C220.581 30.1061 220.426 30.1234 220.27 30.1493C219.838 30.2356 219.475 30.4516 219.182 30.7884C218.88 31.1338 218.715 31.5484 218.681 32.0061C218.672 32.1615 218.672 32.317 218.698 32.4724C218.724 32.6711 218.785 32.8697 218.871 33.0511C219.087 33.5174 219.424 33.8456 219.89 34.0529C220.141 34.1479 220.408 34.1997 220.685 34.1997Z" fill="#006938"/>
<path d="M221.885 33.4828H221.868C221.669 33.4828 221.479 33.4828 221.281 33.4828C221.272 33.4828 221.263 33.4828 221.255 33.4655C221.22 33.4137 221.194 33.3532 221.177 33.2928C221.142 33.1546 221.108 33.0251 221.065 32.8869C221.047 32.8437 221.039 32.7919 221.03 32.7487C220.978 32.6105 220.875 32.5242 220.736 32.4896C220.667 32.4723 220.598 32.4723 220.529 32.4723C220.443 32.4723 220.356 32.4723 220.27 32.4723C220.261 32.4723 220.261 32.4723 220.253 32.4723V33.4828H219.666V30.9178C219.709 30.9092 219.752 30.9092 219.795 30.9005C219.873 30.8919 219.951 30.8833 220.028 30.8746C220.089 30.866 220.158 30.8574 220.218 30.8574C220.365 30.8487 220.503 30.8401 220.65 30.8401C220.771 30.8401 220.901 30.8487 221.021 30.8574C221.186 30.8746 221.341 30.9265 221.479 31.0128C221.643 31.1164 221.738 31.2719 221.773 31.4619C221.799 31.6087 221.782 31.7469 221.704 31.8764C221.635 31.9887 221.54 32.0664 221.427 32.1183C221.376 32.1442 221.315 32.1701 221.255 32.1873C221.246 32.196 221.246 32.196 221.246 32.2046C221.246 32.2133 221.246 32.2219 221.255 32.2219C221.419 32.2737 221.531 32.386 221.6 32.5414C221.652 32.6537 221.678 32.766 221.704 32.8783C221.738 33.0423 221.773 33.1978 221.833 33.3532C221.851 33.4051 221.868 33.4396 221.885 33.4828ZM220.261 32.0405C220.27 32.0405 220.27 32.0405 220.261 32.0405C220.4 32.0405 220.538 32.0405 220.676 32.0319C220.762 32.0319 220.84 32.006 220.918 31.9714C221.039 31.9196 221.125 31.8333 221.134 31.6951C221.151 31.5569 221.099 31.4274 220.961 31.3496C220.866 31.2978 220.754 31.2805 220.65 31.2719C220.555 31.2719 220.451 31.2719 220.348 31.2892C220.322 31.2978 220.287 31.2978 220.261 31.3064V32.0405Z" fill="#006938"/>
<path d="M61.1391 51.7228C59.2649 51.7228 57.3994 51.3687 55.5252 50.6691C53.651 49.9696 52.0792 49.0455 50.8096 47.8969L53.6338 43.7428C54.6443 44.6756 55.8275 45.4183 57.1748 45.9883C58.5221 46.5583 59.8349 46.8433 61.1131 46.8433C62.2359 46.8433 63.1946 46.6187 63.9805 46.1696C64.7665 45.7205 65.1637 45.1505 65.1637 44.451C65.1637 44.1746 65.1119 43.9242 64.9997 43.6997C64.8874 43.4751 64.706 43.2678 64.4469 43.0865C64.1878 42.9051 63.9373 42.741 63.7042 42.6115C63.471 42.4819 63.1169 42.3438 62.6591 42.1969C62.2014 42.0501 61.83 41.9465 61.545 41.8688C61.2686 41.791 60.8368 41.6874 60.2667 41.5492C54.5924 40.1847 51.7596 37.5938 51.7596 33.7852C51.7596 31.6002 52.6233 29.8471 54.342 28.5171C56.0607 27.1871 58.3321 26.5221 61.1477 26.5221C62.9528 26.5221 64.6024 26.7985 66.0965 27.3512C67.5907 27.9039 68.8171 28.6293 69.7585 29.5189L67.2106 33.6902C66.5024 33.0166 65.587 32.4639 64.4728 32.0407C63.3587 31.6175 62.2359 31.4016 61.1131 31.4016C60.0249 31.4016 59.1267 31.6089 58.4271 32.0148C57.7276 32.4207 57.3821 32.9475 57.3821 33.5866C57.3821 33.9666 57.503 34.312 57.7448 34.6229C57.9867 34.9338 58.3321 35.2016 58.7899 35.4175C59.2476 35.6334 59.7054 35.8234 60.189 35.9702C60.664 36.117 61.2168 36.2552 61.83 36.3847C62.2532 36.4797 62.6505 36.5747 63.0219 36.6697C63.3932 36.7647 63.8942 36.9288 64.5419 37.1534C65.181 37.3779 65.7597 37.6197 66.2779 37.8788C66.7961 38.1379 67.3488 38.4747 67.9275 38.8979C68.5062 39.3211 69.0071 39.7701 69.4044 40.2624C69.8017 40.7547 70.1299 41.3333 70.3976 42.0156C70.6567 42.6978 70.7949 43.4319 70.7949 44.2092C70.7949 45.6687 70.3717 46.9728 69.5166 48.1301C68.6702 49.2873 67.5129 50.1769 66.0533 50.7987C64.5678 51.4118 62.9355 51.7228 61.1391 51.7228Z" fill="#EBB422"/>
<path d="M75.9944 31.0042C75.0962 31.0042 74.3448 30.7019 73.7402 30.0974C73.127 29.4928 72.8247 28.7415 72.8247 27.8347C72.8247 26.9365 73.127 26.1938 73.7402 25.5979C74.3534 25.002 75.0962 24.6997 75.9944 24.6997C76.9099 24.6997 77.6785 25.002 78.2917 25.5979C78.9049 26.1938 79.2159 26.9451 79.2159 27.8347C79.2159 28.7415 78.9049 29.4928 78.2917 30.0974C77.6785 30.7019 76.9185 31.0042 75.9944 31.0042ZM73.4293 51.2908V33.3101H78.5767V51.2908H73.4293Z" fill="#EBB422"/>
<path d="M89.0011 51.7226C86.0647 51.7226 83.4909 50.8158 81.2886 49.0021L83.6809 45.6772C85.2096 46.9726 86.9197 47.6203 88.8284 47.6203C89.6921 47.6203 90.383 47.4908 90.9012 47.2403C91.428 46.9899 91.6872 46.6358 91.6872 46.1694C91.6872 45.9276 91.6181 45.7204 91.4712 45.5304C91.3244 45.349 91.0826 45.1849 90.7371 45.0381C90.3916 44.8913 90.0721 44.779 89.7784 44.7013C89.4848 44.6235 89.053 44.5113 88.4743 44.3731C88.0511 44.2781 87.7143 44.209 87.4811 44.1485C87.2479 44.0881 86.9197 44.0017 86.4879 43.8808C86.056 43.7599 85.7278 43.6476 85.4687 43.544C85.2183 43.4404 84.9073 43.3022 84.536 43.1208C84.1646 42.9395 83.8709 42.7581 83.6464 42.5681C83.4218 42.3781 83.18 42.1449 82.9209 41.8686C82.6618 41.5922 82.4632 41.3072 82.325 40.9963C82.1868 40.694 82.0745 40.3399 81.9709 39.934C81.8672 39.5281 81.824 39.105 81.824 38.6386C81.824 37.3863 82.1695 36.3154 82.8518 35.4259C83.5341 34.5364 84.4323 33.8886 85.5378 33.4741C86.6433 33.0596 87.9043 32.8523 89.3034 32.8523C91.9463 32.8523 94.33 33.6382 96.4632 35.21L94.0536 38.535C92.5076 37.4813 90.9789 36.9545 89.4762 36.9545C88.742 36.9545 88.1461 37.0582 87.6797 37.2741C87.2133 37.49 86.9802 37.8095 86.9802 38.25C86.9802 38.4486 87.0406 38.6213 87.1529 38.7854C87.2652 38.9495 87.4033 39.0791 87.5674 39.1827C87.7315 39.2863 87.9647 39.39 88.2843 39.5022C88.6039 39.6145 88.8802 39.6922 89.1393 39.7527C89.3984 39.8131 89.7439 39.8909 90.193 39.9945C90.6507 40.0981 91.0221 40.1845 91.2985 40.2449C91.5749 40.3054 91.9462 40.409 92.4126 40.5386C92.879 40.6681 93.259 40.8063 93.5527 40.9531C93.8463 41.0999 94.1832 41.2727 94.5632 41.4799C94.9432 41.6872 95.2541 41.9204 95.4959 42.1881C95.7378 42.4558 95.9709 42.7495 96.1955 43.0863C96.4201 43.4231 96.5842 43.8031 96.6878 44.2435C96.7914 44.684 96.8433 45.159 96.8433 45.6772C96.8433 47.5858 96.1005 49.0712 94.6323 50.1249C93.1467 51.1871 91.2726 51.7226 89.0011 51.7226Z" fill="#EBB422"/>
<path d="M102.189 31.0042C101.291 31.0042 100.54 30.7019 99.935 30.0974C99.3305 29.4928 99.0195 28.7415 99.0195 27.8347C99.0195 26.9365 99.3218 26.1938 99.935 25.5979C100.548 25.002 101.3 24.6997 102.189 24.6997C103.105 24.6997 103.873 25.002 104.487 25.5979C105.1 26.1938 105.411 26.9451 105.411 27.8347C105.411 28.7415 105.1 29.4928 104.487 30.0974C103.873 30.7019 103.105 31.0042 102.189 31.0042ZM99.6241 51.2908V33.3101H104.772V51.2908H99.6241Z" fill="#EBB422"/>
<path d="M119.428 32.8784C121.907 32.8784 123.98 33.7765 125.629 35.5729C127.279 37.3692 128.108 39.6146 128.108 42.3005C128.108 44.9864 127.279 47.2318 125.629 49.0282C123.98 50.8245 121.907 51.7227 119.428 51.7227C117.26 51.7227 115.446 50.98 114.004 49.5032V51.2909H108.857V25.8916H114.004V35.1065C115.455 33.6211 117.26 32.8784 119.428 32.8784ZM115.265 45.47C116.103 46.3164 117.157 46.7482 118.418 46.7482C119.678 46.7482 120.732 46.325 121.57 45.47C122.408 44.6151 122.831 43.5614 122.831 42.3005C122.831 41.0396 122.416 39.9774 121.57 39.131C120.723 38.2847 119.678 37.8529 118.418 37.8529C117.157 37.8529 116.103 38.276 115.265 39.131C114.427 39.9774 114.004 41.0396 114.004 42.3005C114.004 43.5614 114.427 44.6237 115.265 45.47Z" fill="#EBB422"/>
<path d="M139.854 51.7227C137.082 51.7227 134.776 50.8245 132.919 49.0195C131.062 47.2145 130.138 44.9777 130.138 42.3005C130.138 39.6232 131.062 37.3864 132.919 35.5815C134.776 33.7765 137.082 32.8783 139.854 32.8783C141.676 32.8783 143.335 33.2928 144.811 34.1133C146.288 34.9337 147.454 36.0651 148.292 37.5073C149.13 38.9496 149.553 40.5473 149.553 42.3005C149.553 44.0536 149.13 45.66 148.292 47.0936C147.454 48.5359 146.297 49.6672 144.811 50.4877C143.326 51.3081 141.685 51.7227 139.854 51.7227ZM136.702 45.47C137.539 46.3163 138.593 46.7482 139.854 46.7482C141.115 46.7482 142.169 46.325 143.006 45.47C143.844 44.615 144.267 43.5614 144.267 42.3005C144.267 41.0396 143.853 39.9773 143.006 39.131C142.16 38.2846 141.115 37.8528 139.854 37.8528C138.593 37.8528 137.539 38.276 136.702 39.131C135.864 39.9773 135.441 41.0396 135.441 42.3005C135.441 43.5614 135.864 44.6236 136.702 45.47Z" fill="#EBB422"/>
<path d="M164.978 26.9539C167.414 26.9539 169.443 27.7398 171.076 29.3202C172.708 30.9006 173.52 32.8697 173.52 35.236C173.52 37.6024 172.699 39.5715 171.076 41.1519C169.443 42.7323 167.414 43.5182 164.978 43.5182H159.623V51.2823H154.148V26.9539H164.978ZM164.874 38.371C165.738 38.371 166.455 38.0687 167.034 37.4642C167.612 36.8597 167.906 36.1169 167.906 35.236C167.906 34.3379 167.612 33.5952 167.034 32.9993C166.455 32.4033 165.73 32.1011 164.874 32.1011H159.623V38.371H164.874Z" fill="#006938"/>
<path d="M189.308 33.3101H194.455V51.2908H189.308V49.5031C187.857 50.9799 186.043 51.7227 183.867 51.7227C181.397 51.7227 179.332 50.8245 177.674 49.0195C176.016 47.2145 175.187 44.9777 175.187 42.3005C175.187 39.6232 176.016 37.3864 177.674 35.5815C179.332 33.7765 181.397 32.8783 183.867 32.8783C186.052 32.8783 187.865 33.621 189.308 35.0978V33.3101ZM184.903 46.7482C186.164 46.7482 187.218 46.325 188.055 45.47C188.893 44.6236 189.316 43.5614 189.316 42.3005C189.316 41.0396 188.893 39.9773 188.055 39.131C187.218 38.2846 186.164 37.8528 184.903 37.8528C183.651 37.8528 182.614 38.276 181.777 39.131C180.947 39.9773 180.524 41.0396 180.524 42.3005C180.524 43.5614 180.939 44.6236 181.777 45.47C182.606 46.3163 183.651 46.7482 184.903 46.7482Z" fill="#006938"/>
<path d="M210.701 33.3101H216.453L207.894 54.184C207.393 55.4795 206.616 56.5072 205.562 57.2758C204.508 58.0358 203.36 58.4244 202.107 58.4244C201.261 58.4244 200.38 58.2604 199.473 57.9235C198.566 57.5867 197.798 57.1463 197.167 56.5763L199.145 52.5604C199.732 53.1477 200.432 53.4413 201.244 53.4413C202.107 53.4413 202.755 52.9922 203.187 52.0941L203.722 50.9713L196.519 33.3015H202.41L206.572 44.7187L210.701 33.3101Z" fill="#006938"/>
<path d="M83.7931 62.328H82.9294V57.699L80.9257 62.328H80.1743L78.1879 57.7249V62.328H77.3242V56.3604H78.5161L80.5716 61.1189L82.6185 56.3604H83.7845V62.328H83.7931Z" fill="#1D5129"/>
<path d="M88.5867 57.9149H89.4244V62.328H88.5867V61.6457H88.5521C88.2239 62.1207 87.6971 62.4489 86.963 62.4575C85.6761 62.4748 84.7261 61.5076 84.7261 60.1258C84.7261 58.7526 85.6588 57.7853 86.9716 57.8026C87.6798 57.8112 88.2153 58.1221 88.5521 58.5712H88.5867V57.9149ZM88.578 60.1171C88.578 59.2794 87.9907 58.6058 87.0925 58.6058C86.1684 58.6058 85.5811 59.2794 85.5811 60.1171C85.5811 60.9548 86.1684 61.6285 87.0925 61.6285C87.9907 61.6285 88.578 60.9462 88.578 60.1171Z" fill="#1D5129"/>
<path d="M94.2434 55.9113H95.0812V62.328H94.2434V61.6889H94.2002C93.8807 62.138 93.3279 62.4489 92.6284 62.4576C91.3156 62.4748 90.3828 61.5076 90.3828 60.1344C90.3828 58.7526 91.3328 57.7853 92.6197 57.8026C93.3193 57.8112 93.8807 58.1394 94.2089 58.6144H94.2434V55.9113ZM94.2348 60.1258C94.2348 59.2967 93.6475 58.6144 92.7493 58.6144C91.8251 58.6144 91.2378 59.288 91.2378 60.1258C91.2378 60.9635 91.8251 61.6371 92.7493 61.6371C93.6388 61.6371 94.2348 60.9635 94.2348 60.1258Z" fill="#1D5129"/>
<path d="M100.531 60.4194H96.8863C96.9468 61.1016 97.5168 61.6371 98.32 61.6371C98.8901 61.6371 99.3651 61.3694 99.5551 60.9548H100.436C100.142 61.8875 99.3133 62.4489 98.2769 62.4489C96.8518 62.4489 95.9795 61.378 95.9795 60.1257C95.9795 58.8303 96.9036 57.7939 98.2596 57.7939C99.7365 57.7939 100.652 58.9512 100.531 60.4194ZM96.9123 59.6767H99.6242C99.4946 59.0462 98.9678 58.6058 98.2596 58.6058C97.56 58.6058 97.0332 59.0462 96.9123 59.6767Z" fill="#1D5129"/>
<path d="M103.917 62.328V56.3604H108.339V57.2067H104.78V58.8303H108.071V59.6767H104.78V61.4817H108.339V62.328H103.917Z" fill="#1D5129"/>
<path d="M112.856 57.9149H113.693V62.328H112.856V61.6457H112.821C112.493 62.1207 111.966 62.4489 111.232 62.4575C109.954 62.4748 108.995 61.5076 108.995 60.1258C108.995 58.7526 109.928 57.7853 111.241 57.8026C111.958 57.8112 112.493 58.1221 112.821 58.5712H112.856V57.9149ZM112.847 60.1171C112.847 59.2794 112.26 58.6058 111.362 58.6058C110.437 58.6058 109.85 59.2794 109.85 60.1171C109.85 60.9548 110.437 61.6285 111.362 61.6285C112.26 61.6285 112.847 60.9462 112.847 60.1171Z" fill="#1D5129"/>
<path d="M118.383 57.9149V58.7354H115.947C115.723 58.7354 115.576 58.8822 115.576 59.1067C115.576 59.314 115.697 59.4435 115.87 59.4781L117.692 59.884C118.314 60.0308 118.703 60.4885 118.703 61.0758C118.703 61.7926 118.176 62.3108 117.442 62.3108H114.868V61.4903H117.424C117.64 61.4903 117.804 61.3349 117.804 61.0844C117.804 60.8772 117.692 60.739 117.502 60.6958L115.671 60.2985C115.067 60.169 114.687 59.694 114.687 59.1154C114.687 58.4245 115.213 57.9149 115.93 57.9149H118.383Z" fill="#1D5129"/>
<path d="M122.857 57.9149H123.721L121.777 63.0103C121.492 63.7617 121.086 64.1071 120.318 64.1071H119.273V63.2608H120.318C120.706 63.2608 120.87 63.1312 121.009 62.7599L121.017 62.7426L119.005 57.9149H119.938L121.449 61.6199L122.857 57.9149Z" fill="#1D5129"/>
<path d="M128.419 56.7317C128.134 56.7317 127.97 56.8958 127.97 57.1722V57.9235H129.973V58.744H127.97V62.3367H127.123V58.744H126.32V57.9235H127.123V57.034C127.123 56.3863 127.59 55.9199 128.237 55.9199H129.973V56.7404H128.419V56.7317Z" fill="#1D5129"/>
<path d="M130.224 60.1171C130.224 58.813 131.174 57.7939 132.616 57.7939C134.024 57.7939 134.966 58.8217 134.966 60.1171C134.966 61.4125 134.024 62.4489 132.616 62.4489C131.174 62.4489 130.224 61.4125 130.224 60.1171ZM134.119 60.1171C134.119 59.2794 133.515 58.6058 132.616 58.6058C131.692 58.6058 131.079 59.2794 131.079 60.1171C131.079 60.9548 131.684 61.6371 132.616 61.6371C133.506 61.6371 134.119 60.9462 134.119 60.1171Z" fill="#1D5129"/>
<path d="M138.938 57.9149V58.7699H138.101C137.297 58.7699 136.753 59.2967 136.753 60.2035V62.3281H135.907V57.9149H136.727V58.6749H136.762C136.995 58.174 137.453 57.9149 138.092 57.9149H138.938Z" fill="#1D5129"/>
<path d="M147.8 60.0567C147.523 61.4212 146.392 62.4403 144.82 62.4403C142.989 62.4403 141.771 61.0326 141.771 59.3399C141.771 57.6558 142.989 56.2308 144.82 56.2308C146.349 56.2308 147.48 57.2326 147.774 58.5713H146.867C146.608 57.7163 145.839 57.0772 144.837 57.0772C143.533 57.0772 142.644 58.1308 142.644 59.3399C142.644 60.5662 143.533 61.594 144.837 61.594C145.908 61.594 146.651 60.9203 146.876 60.0567H147.8Z" fill="#1D5129"/>
<path d="M153.077 59.7976V62.328H152.23V59.953C152.23 59.1844 151.781 58.6144 151.021 58.6144C150.209 58.6144 149.656 59.2449 149.656 60.1258V62.328H148.81V55.9113H149.656V58.5108H149.691C150.019 58.079 150.546 57.7853 151.194 57.7853C152.325 57.794 153.077 58.5799 153.077 59.7976Z" fill="#1D5129"/>
<path d="M157.827 57.9149H158.665V62.328H157.827V61.6457H157.792C157.464 62.1207 156.937 62.4489 156.203 62.4575C154.916 62.4748 153.966 61.5076 153.966 60.1258C153.966 58.7526 154.899 57.7853 156.212 57.8026C156.92 57.8112 157.456 58.1221 157.792 58.5712H157.827V57.9149ZM157.818 60.1171C157.818 59.2794 157.231 58.6058 156.333 58.6058C155.409 58.6058 154.821 59.2794 154.821 60.1171C154.821 60.9548 155.409 61.6285 156.333 61.6285C157.231 61.6285 157.818 60.9462 157.818 60.1171Z" fill="#1D5129"/>
<path d="M166.645 59.6162V62.328H165.799V59.7112C165.799 59.0462 165.436 58.6144 164.823 58.6144C164.313 58.6144 163.726 59.003 163.726 59.9962V62.328H162.879V59.7112C162.879 59.0462 162.517 58.5971 161.895 58.6144C161.239 58.6317 160.798 59.2362 160.798 60.0653V62.328H159.952V57.9149H160.764V58.5453H160.798C161.066 58.1049 161.515 57.7939 162.102 57.7939C162.759 57.7939 163.242 58.1308 163.501 58.6489H163.527C163.812 58.1221 164.33 57.7939 165.004 57.7939C166.032 57.8026 166.645 58.5539 166.645 59.6162Z" fill="#1D5129"/>
<path d="M172.526 60.1171C172.526 61.4989 171.576 62.4662 170.29 62.4489C169.59 62.4403 169.029 62.1121 168.7 61.6371H168.666V64.1071H167.828V57.9149H168.666V58.554H168.709C169.029 58.1049 169.581 57.794 170.281 57.7853C171.585 57.7767 172.526 58.744 172.526 60.1171ZM171.68 60.1171C171.68 59.2794 171.093 58.6058 170.169 58.6058C169.27 58.6058 168.683 59.2794 168.683 60.1171C168.683 60.9462 169.27 61.6285 170.169 61.6285C171.093 61.6285 171.68 60.9548 171.68 60.1171Z" fill="#1D5129"/>
<path d="M174.366 55.9113V57.2067H173.52V55.9113H174.366ZM174.366 57.9149V62.328H173.52V57.9149H174.366Z" fill="#1D5129"/>
<path d="M175.308 60.1171C175.308 58.813 176.258 57.7939 177.691 57.7939C179.099 57.7939 180.041 58.8217 180.041 60.1171C180.041 61.4125 179.099 62.4489 177.691 62.4489C176.258 62.4489 175.308 61.4125 175.308 60.1171ZM179.203 60.1171C179.203 59.2794 178.598 58.6058 177.7 58.6058C176.776 58.6058 176.171 59.2794 176.171 60.1171C176.171 60.9548 176.776 61.6371 177.7 61.6371C178.598 61.6371 179.203 60.9462 179.203 60.1171Z" fill="#1D5129"/>
<path d="M185.266 59.7976V62.3281H184.419V59.9531C184.419 59.1845 183.97 58.6145 183.21 58.6145C182.398 58.6145 181.846 59.2449 181.846 60.1258V62.3281H180.999V57.9149H181.828V58.5108H181.863C182.2 58.079 182.735 57.7854 183.383 57.7854C184.506 57.794 185.266 58.5799 185.266 59.7976Z" fill="#1D5129"/>
<path d="M189.852 57.9149V58.7354H187.416C187.192 58.7354 187.045 58.8822 187.045 59.1067C187.045 59.314 187.166 59.4435 187.339 59.4781L189.161 59.884C189.783 60.0308 190.171 60.4885 190.171 61.0758C190.171 61.7926 189.644 62.3108 188.91 62.3108H186.337V61.4903H188.893C189.109 61.4903 189.273 61.3349 189.273 61.0844C189.273 60.8772 189.161 60.739 188.971 60.6958L187.14 60.2985C186.535 60.169 186.155 59.694 186.155 59.1154C186.155 58.4245 186.682 57.9149 187.399 57.9149H189.852Z" fill="#1D5129"/>
</svg>
